<?xml version="1.0" encoding="utf-8"?>
<svg version="1.1" xmlns:xlink="http://www.w3.org/1999/xlink" width="35px" height="35px" xmlns="http://www.w3.org/2000/svg">
  <g transform="matrix(1 0 0 1 -432 -480 )">
    <path d="M 449.5 480  C 459.3 480  467 487.7  467 497.5  C 467 507.3  459.3 515  449.5 515  C 439.7 515  432 507.3  432 497.5  C 432 487.7  439.7 480  449.5 480  Z " fill-rule="nonzero" fill="#ffffff" stroke="none" />
    <path d="M 449.5 480.5  C 459.02 480.5  466.5 487.98  466.5 497.5  C 466.5 507.02  459.02 514.5  449.5 514.5  C 439.98 514.5  432.5 507.02  432.5 497.5  C 432.5 487.98  439.98 480.5  449.5 480.5  Z " stroke-width="1" stroke="#797979" fill="none" />
  </g>
</svg>