<?xml version="1.0" encoding="utf-8"?>
<svg version="1.1" xmlns:xlink="http://www.w3.org/1999/xlink" width="44px" height="44px" xmlns="http://www.w3.org/2000/svg">
  <g transform="matrix(1 0 0 1 -426 -135 )">
    <path d="M 448 135  C 460.32 135  470 144.68  470 157  C 470 169.32  460.32 179  448 179  C 435.68 179  426 169.32  426 157  C 426 144.68  435.68 135  448 135  Z " fill-rule="nonzero" fill="#ffffff" stroke="none" />
    <path d="M 448 135.5  C 460.04 135.5  469.5 144.96  469.5 157  C 469.5 169.04  460.04 178.5  448 178.5  C 435.96 178.5  426.5 169.04  426.5 157  C 426.5 144.96  435.96 135.5  448 135.5  Z " stroke-width="1" stroke="#999999" fill="none" />
  </g>
</svg>