<?xml version="1.0" encoding="utf-8"?>
<svg version="1.1" xmlns:xlink="http://www.w3.org/1999/xlink" width="366px" height="88px" xmlns="http://www.w3.org/2000/svg">
  <defs>
    <filter x="104px" y="316px" width="366px" height="88px" filterUnits="userSpaceOnUse" id="filter8">
      <feOffset dx="0" dy="0" in="SourceAlpha" result="shadowOffsetInner" />
      <feGaussianBlur stdDeviation="1" in="shadowOffsetInner" result="shadowGaussian" />
      <feComposite in2="shadowGaussian" operator="atop" in="SourceAlpha" result="shadowComposite" />
      <feColorMatrix type="matrix" values="0 0 0 0 0  0 0 0 0 0  0 0 0 0 0  0 0 0 0.349019607843137 0  " in="shadowComposite" />
    </filter>
    <g id="widget9">
      <path d="M 107 323  A 4 4 0 0 1 111 319 L 463 319  A 4 4 0 0 1 467 323 L 467 397  A 4 4 0 0 1 463 401 L 111 401  A 4 4 0 0 1 107 397 L 107 323  Z " fill-rule="nonzero" fill="#ffffff" stroke="none" fill-opacity="0" />
      <path d="M 106.5 323  A 4.5 4.5 0 0 1 111 318.5 L 463 318.5  A 4.5 4.5 0 0 1 467.5 323 L 467.5 397  A 4.5 4.5 0 0 1 463 401.5 L 111 401.5  A 4.5 4.5 0 0 1 106.5 397 L 106.5 323  Z " stroke-width="1" stroke-dasharray="3,1" stroke="#797979" fill="none" stroke-dashoffset="0.5" />
    </g>
  </defs>
  <g transform="matrix(1 0 0 1 -104 -316 )">
    <use xlink:href="#widget9" filter="url(#filter8)" />
    <use xlink:href="#widget9" />
  </g>
</svg>