<?xml version="1.0" encoding="utf-8"?>
<svg version="1.1" xmlns:xlink="http://www.w3.org/1999/xlink" width="16px" height="16px" xmlns="http://www.w3.org/2000/svg">
  <g transform="matrix(1 0 0 1 -444 -259 )">
    <path d="M 7.76041666666667 9.42708333333333  C 7.82986111111111 9.49652777777778  7.86458333333333 9.57638888888889  7.86458333333333 9.66666666666667  C 7.86458333333333 9.75694444444444  7.82986111111111 9.83680555555555  7.76041666666667 9.90625  L 4.30208333333333 13.3645833333333  L 5.80208333333333 14.8645833333333  C 5.93402777777778 14.9965277777778  6 15.1527777777778  6 15.3333333333333  C 6 15.5138888888889  5.93402777777778 15.6701388888889  5.80208333333333 15.8020833333333  C 5.67013888888889 15.9340277777778  5.51388888888889 16  5.33333333333333 16  L 0.666666666666667 16  C 0.486111111111111 16  0.329861111111111 15.9340277777778  0.197916666666667 15.8020833333333  C 0.0659722222222222 15.6701388888889  0 15.5138888888889  0 15.3333333333333  L 0 10.6666666666667  C 0 10.4861111111111  0.0659722222222222 10.3298611111111  0.197916666666667 10.1979166666667  C 0.329861111111111 10.0659722222222  0.486111111111111 10  0.666666666666667 10  C 0.847222222222222 10  1.00347222222222 10.0659722222222  1.13541666666667 10.1979166666667  L 2.63541666666667 11.6979166666667  L 6.09375 8.23958333333333  C 6.16319444444445 8.17013888888889  6.24305555555556 8.13541666666667  6.33333333333333 8.13541666666667  C 6.42361111111111 8.13541666666667  6.50347222222222 8.17013888888889  6.57291666666667 8.23958333333333  L 7.76041666666667 9.42708333333333  Z M 15.8020833333333 0.197916666666666  C 15.9340277777778 0.329861111111109  16 0.486111111111109  16 0.666666666666666  L 16 5.33333333333333  C 16 5.51388888888889  15.9340277777778 5.67013888888889  15.8020833333333 5.80208333333333  C 15.6701388888889 5.93402777777778  15.5138888888889 6  15.3333333333333 6  C 15.1527777777778 6  14.9965277777778 5.93402777777778  14.8645833333333 5.80208333333333  L 13.3645833333333 4.30208333333333  L 9.90625 7.76041666666667  C 9.83680555555556 7.82986111111111  9.75694444444444 7.86458333333333  9.66666666666667 7.86458333333333  C 9.57638888888889 7.86458333333333  9.49652777777778 7.82986111111111  9.42708333333333 7.76041666666667  L 8.23958333333333 6.57291666666667  C 8.17013888888889 6.50347222222222  8.13541666666667 6.42361111111111  8.13541666666667 6.33333333333333  C 8.13541666666667 6.24305555555556  8.17013888888889 6.16319444444444  8.23958333333333 6.09375  L 11.6979166666667 2.63541666666667  L 10.1979166666667 1.13541666666667  C 10.0659722222222 1.00347222222222  10 0.847222222222221  10 0.666666666666666  C 10 0.486111111111109  10.0659722222222 0.329861111111109  10.1979166666667 0.197916666666666  C 10.3298611111111 0.0659722222222214  10.4861111111111 0  10.6666666666667 0  L 15.3333333333333 0  C 15.5138888888889 0  15.6701388888889 0.0659722222222214  15.8020833333333 0.197916666666666  Z " fill-rule="nonzero" fill="#ffffff" stroke="none" transform="matrix(1 0 0 1 444 259 )" />
  </g>
</svg>