<?xml version="1.0" encoding="utf-8"?>
<svg version="1.1" xmlns:xlink="http://www.w3.org/1999/xlink" width="9px" height="15px" xmlns="http://www.w3.org/2000/svg">
  <g transform="matrix(1 0 0 1 -344 -498 )">
    <path d="M 8.84536082474227 0.901803607214447  C 8.94845360824741 1.00200400801606  9 1.11723446893785  9 1.24749498997994  C 9 1.37775551102203  8.94845360824741 1.49298597194388  8.84536082474227 1.59318637274549  L 2.76804123711338 7.5  L 8.84536082474227 13.4068136272545  C 8.94845360824741 13.5070140280561  9 13.622244488978  9 13.7525050100201  C 9 13.8827655310621  8.94845360824741 13.9979959919839  8.84536082474227 14.0981963927856  L 8.07216494845363 14.8496993987976  C 7.96907216494844 14.9498997995992  7.85051546391753 15  7.71649484536084 15  C 7.58247422680415 15  7.46391752577318 14.9498997995992  7.36082474226805 14.8496993987976  L 0.154639175257728 7.84569138276555  C 0.0515463917525949 7.74549098196394  0 7.63026052104209  0 7.5  C 0 7.36973947895791  0.0515463917525949 7.25450901803606  0.154639175257728 7.15430861723445  L 7.36082474226805 0.150300601202389  C 7.46391752577318 0.0501002004007773  7.58247422680415 0  7.71649484536084 0  C 7.85051546391753 0  7.96907216494844 0.0501002004007773  8.07216494845363 0.150300601202389  L 8.84536082474227 0.901803607214447  Z " fill-rule="nonzero" fill="#999999" stroke="none" transform="matrix(1 0 0 1 344 498 )" />
  </g>
</svg>