<?xml version="1.0" standalone="no"?><!DOCTYPE svg PUBLIC "-//W3C//DTD SVG 1.1//EN" "http://www.w3.org/Graphics/SVG/1.1/DTD/svg11.dtd"><svg t="1543043433475" class="icon" style="" viewBox="0 0 1024 1024" version="1.1" xmlns="http://www.w3.org/2000/svg" p-id="12419" xmlns:xlink="http://www.w3.org/1999/xlink" width="200" height="200"><defs><style type="text/css"></style></defs><path d="M792.4 914.6H150.8c-47.2 0-85.5-38.4-85.5-85.5V298.6c0-47.2 38.4-85.5 85.5-85.5h266.6c6 0 10.9 4.9 10.9 10.9s-4.9 10.9-10.9 10.9H150.8c-35.2 0-63.8 28.6-63.8 63.8v530.5c0 35.2 28.6 63.8 63.8 63.8h641.5c35.2 0 63.8-28.6 63.8-63.8V611.6c0-6 4.9-10.9 10.9-10.9s10.9 4.9 10.9 10.9V829c0 47.2-38.4 85.6-85.5 85.6z" p-id="12420" fill="#bfbfbf"></path><path d="M348.7 643.1c-1.5 0-3-0.3-4.5-1-5.5-2.5-7.9-8.9-5.4-14.4 1.7-3.7 170.6-364.6 583.4-329.8L764.4 127.2c-4.1-4.4-3.8-11.3 0.6-15.4 4.5-4.1 11.3-3.8 15.4 0.6l177.4 191.9c3.1 3.4 3.8 8.3 1.7 12.3-2.1 4-6.6 6.3-11 5.8C530.9 270 360.3 633.1 358.6 636.7c-1.8 4-5.8 6.4-9.9 6.4z" p-id="12421" fill="#bfbfbf"></path><path d="M776 514.6c-2.6 0-5.2-0.9-7.3-2.8-4.4-4-4.8-10.9-0.8-15.3l173.8-191.9c4.1-4.5 10.9-4.8 15.4-0.8 4.4 4 4.8 10.9 0.8 15.3L784.1 511c-2.2 2.4-5.2 3.6-8.1 3.6z" p-id="12422" fill="#bfbfbf"></path></svg>