<?xml version="1.0" encoding="utf-8"?>
<svg version="1.1" xmlns:xlink="http://www.w3.org/1999/xlink" width="23px" height="23px" xmlns="http://www.w3.org/2000/svg">
  <defs>
    <filter x="448px" y="254px" width="23px" height="23px" filterUnits="userSpaceOnUse" id="filter18">
      <feOffset dx="0" dy="0" in="SourceAlpha" result="shadowOffsetInner" />
      <feGaussianBlur stdDeviation="1.5" in="shadowOffsetInner" result="shadowGaussian" />
      <feComposite in2="shadowGaussian" operator="atop" in="SourceAlpha" result="shadowComposite" />
      <feColorMatrix type="matrix" values="0 0 0 0 0  0 0 0 0 0  0 0 0 0 0  0 0 0 0.349019607843137 0  " in="shadowComposite" />
    </filter>
    <g id="widget19">
      <path d="M 8.24544270833331 10.0162760416667  C 8.31922743055554 10.0900607638889  8.35611979166669 10.1749131944445  8.35611979166669 10.2708333333333  C 8.35611979166669 10.3667534722222  8.31922743055554 10.4516059027778  8.24544270833331 10.525390625  L 4.57096354166669 14.1998697916667  L 6.16471354166669 15.7936197916667  C 6.30490451388891 15.9338107638889  6.375 16.0998263888889  6.375 16.2916666666667  C 6.375 16.4835069444445  6.30490451388891 16.6495225694445  6.16471354166669 16.7897135416667  C 6.02452256944446 16.9299045138889  5.85850694444446 17  5.66666666666669 17  L 0.708333333333314 17  C 0.516493055555543 17  0.350477430555543 16.9299045138889  0.210286458333314 16.7897135416667  C 0.0700954861110858 16.6495225694445  0 16.4835069444445  0 16.2916666666667  L 0 11.3333333333333  C 0 11.1414930555555  0.0700954861110858 10.9754774305555  0.210286458333314 10.8352864583333  C 0.350477430555543 10.6950954861111  0.516493055555543 10.625  0.708333333333314 10.625  C 0.900173611111086 10.625  1.06618923611109 10.6950954861111  1.20638020833331 10.8352864583333  L 2.80013020833331 12.4290364583333  L 6.474609375 8.75455729166669  C 6.54839409722223 8.68077256944446  6.63324652777777 8.64388020833331  6.72916666666669 8.64388020833331  C 6.82508680555554 8.64388020833331  6.90993923611109 8.68077256944446  6.98372395833331 8.75455729166669  L 8.24544270833331 10.0162760416667  Z M 16.7897135416667 0.210286458333343  C 16.9299045138889 0.350477430555543  17 0.516493055555543  17 0.708333333333343  L 17 5.66666666666666  C 17 5.85850694444446  16.9299045138889 6.02452256944446  16.7897135416667 6.16471354166669  C 16.6495225694445 6.30490451388891  16.4835069444445 6.375  16.2916666666667 6.375  C 16.0998263888889 6.375  15.9338107638889 6.30490451388891  15.7936197916667 6.16471354166669  L 14.1998697916667 4.57096354166666  L 10.525390625 8.24544270833331  C 10.4516059027778 8.31922743055554  10.3667534722222 8.35611979166669  10.2708333333333 8.35611979166669  C 10.1749131944445 8.35611979166669  10.0900607638889 8.31922743055554  10.0162760416667 8.24544270833331  L 8.75455729166669 6.98372395833331  C 8.68077256944446 6.90993923611109  8.64388020833331 6.82508680555554  8.64388020833331 6.72916666666669  C 8.64388020833331 6.63324652777777  8.68077256944446 6.54839409722223  8.75455729166669 6.474609375  L 12.4290364583333 2.80013020833334  L 10.8352864583333 1.20638020833334  C 10.6950954861111 1.06618923611111  10.625 0.900173611111114  10.625 0.708333333333343  C 10.625 0.516493055555543  10.6950954861111 0.350477430555543  10.8352864583333 0.210286458333343  C 10.9754774305555 0.0700954861111143  11.1414930555555 0  11.3333333333333 0  L 16.2916666666667 0  C 16.4835069444445 0  16.6495225694445 0.0700954861111143  16.7897135416667 0.210286458333343  Z " fill-rule="nonzero" fill="#ffffff" stroke="none" transform="matrix(1 0 0 1 451 257 )" />
    </g>
  </defs>
  <g transform="matrix(1 0 0 1 -448 -254 )">
    <use xlink:href="#widget19" filter="url(#filter18)" />
    <use xlink:href="#widget19" />
  </g>
</svg>