<?xml version="1.0" encoding="utf-8"?>
<svg version="1.1" xmlns:xlink="http://www.w3.org/1999/xlink" width="25px" height="31px" xmlns="http://www.w3.org/2000/svg">
  <defs>
    <filter x="113px" y="250px" width="25px" height="31px" filterUnits="userSpaceOnUse" id="filter30">
      <feOffset dx="0" dy="0" in="SourceAlpha" result="shadowOffsetInner" />
      <feGaussianBlur stdDeviation="1.5" in="shadowOffsetInner" result="shadowGaussian" />
      <feComposite in2="shadowGaussian" operator="atop" in="SourceAlpha" result="shadowComposite" />
      <feColorMatrix type="matrix" values="0 0 0 0 0  0 0 0 0 0  0 0 0 0 0  0 0 0 0.349019607843137 0  " in="shadowComposite" />
    </filter>
    <g id="widget31">
      <path d="M 18.3732638888889 11.4013671875  C 18.791087962963 11.7106119791667  19 12.0768229166667  19 12.5  C 19 12.9231770833333  18.791087962963 13.2893880208333  18.3732638888889 13.5986328125  L 13.5665278462137 17.1562499493484  L 3.59548611111111 24.5361328124999  C 3.177662037037 24.8453776041666  2.6828703703704 25  2.11111111111111 25  C 1.53935185185189 25  1.04456018518516 24.8453776041666  0.626736111111114 24.5361328124999  C 0.208912037036995 24.2268880208333  0 23.8606770833333  0 23.4375  L 0 1.5625  C 0 1.13932291666666  0.208912037036995 0.773111979166657  0.626736111111114 0.463867187500114  C 1.04456018518516 0.154622395833343  1.53935185185189 0  2.11111111111111 0  C 2.6828703703704 0  3.177662037037 0.154622395833343  3.59548611111111 0.463867187500114  L 13.8198611084064 8.03124999799817  L 15.4665277777788 9.2500000000008  L 18.3732638888889 11.4013671875  Z " fill-rule="nonzero" fill="#ffffff" stroke="none" transform="matrix(1 0 0 1 116 253 )" />
    </g>
  </defs>
  <g transform="matrix(1 0 0 1 -113 -250 )">
    <use xlink:href="#widget31" filter="url(#filter30)" />
    <use xlink:href="#widget31" />
  </g>
</svg>