<?xml version="1.0" encoding="utf-8"?>
<svg version="1.1" xmlns:xlink="http://www.w3.org/1999/xlink" width="26px" height="26px" xmlns="http://www.w3.org/2000/svg">
  <defs>
    <filter x="113px" y="253px" width="26px" height="26px" filterUnits="userSpaceOnUse" id="filter20">
      <feOffset dx="0" dy="0" in="SourceAlpha" result="shadowOffsetInner" />
      <feGaussianBlur stdDeviation="1.5" in="shadowOffsetInner" result="shadowGaussian" />
      <feComposite in2="shadowGaussian" operator="atop" in="SourceAlpha" result="shadowComposite" />
      <feColorMatrix type="matrix" values="0 0 0 0 0  0 0 0 0 0  0 0 0 0 0  0 0 0 0.349019607843137 0  " in="shadowComposite" />
    </filter>
    <g id="widget21">
      <path d="M 19.7526041666667 0.247395833333343  C 19.9175347222222 0.412326388888886  20 0.607638888888886  20 0.833333333333343  L 20 19.1666666666667  C 20 19.3923611111111  19.9175347222222 19.5876736111111  19.7526041666667 19.7526041666667  C 19.5876736111111 19.9175347222222  19.3923611111111 20  19.1666666666667 20  L 12.5 20  C 12.2743055555556 20  12.0789930555556 19.9175347222222  11.9140625 19.7526041666667  C 11.7491319444444 19.5876736111111  11.6666666666667 19.3923611111111  11.6666666666667 19.1666666666667  L 11.6666666666667 0.833333333333343  C 11.6666666666667 0.607638888888886  11.7491319444444 0.412326388888886  11.9140625 0.247395833333343  C 12.0789930555556 0.0824652777777715  12.2743055555556 0  12.5 0  L 19.1666666666667 0  C 19.3923611111111 0  19.5876736111111 0.0824652777777715  19.7526041666667 0.247395833333343  Z M 8.0859375 0.247395833333343  C 8.25086805555556 0.412326388888886  8.33333333333333 0.607638888888886  8.33333333333333 0.833333333333343  L 8.33333333333333 19.1666666666667  C 8.33333333333333 19.3923611111111  8.25086805555556 19.5876736111111  8.0859375 19.7526041666667  C 7.92100694444444 19.9175347222222  7.72569444444444 20  7.5 20  L 0.833333333333329 20  C 0.607638888888886 20  0.412326388888886 19.9175347222222  0.247395833333329 19.7526041666667  C 0.0824652777777715 19.5876736111111  0 19.3923611111111  0 19.1666666666667  L 0 0.833333333333343  C 0 0.607638888888886  0.0824652777777715 0.412326388888886  0.247395833333329 0.247395833333343  C 0.412326388888886 0.0824652777777715  0.607638888888886 0  0.833333333333329 0  L 7.5 0  C 7.72569444444444 0  7.92100694444444 0.0824652777777715  8.0859375 0.247395833333343  Z " fill-rule="nonzero" fill="#ffffff" stroke="none" transform="matrix(1 0 0 1 116 256 )" />
    </g>
  </defs>
  <g transform="matrix(1 0 0 1 -113 -253 )">
    <use xlink:href="#widget21" filter="url(#filter20)" />
    <use xlink:href="#widget21" />
  </g>
</svg>