<?xml version="1.0" standalone="no"?><!DOCTYPE svg PUBLIC "-//W3C//DTD SVG 1.1//EN" "http://www.w3.org/Graphics/SVG/1.1/DTD/svg11.dtd"><svg t="1542954844509" class="icon" style="" viewBox="0 0 1024 1024" version="1.1" xmlns="http://www.w3.org/2000/svg" p-id="11435" xmlns:xlink="http://www.w3.org/1999/xlink" width="200" height="200"><defs><style type="text/css"></style></defs><path d="M124.557342 490.929102l-0.057305-0.028653" p-id="11436" fill="#bfbfbf"></path><path d="M720.290395 423.416476l-0.096191-0.038886c0.26913-0.413416 0.595564-0.787946 0.845251-1.162476l-39.679721-24.095791c-0.442068 0.701988-0.903579 1.393743-1.344624 2.12336L487.861742 707.504696l-1.460258 2.363837c0.115634-0.144286 0.096191-0.403183 0.172939-0.547469-53.341882 82.933851-167.596066 109.623723-254.661004 59.529815-87.074148-50.122561-116.281353-159.40143-65.101717-243.621577-0.085958 0.115634-0.201591 0.211824-0.317225 0.298805l220.50509-352.668155c38.661531-61.844533 122.593106-81.972966 187.079816-44.877093 64.467267 37.09485 85.451184 117.636211 46.616714 179.480744l-58.990532 94.328365-0.26913-0.172939L402.603963 655.585209l-0.306992 0.461511-0.26913 0.412392c-0.306992 0.576121-0.615007 1.105171-0.921999 1.682315-0.38374 0.529049-0.729617 1.056052-1.11438 1.603521l-0.26913 0.413416-0.306992 0.460488-1.287319 2.104941c0.36532-0.557702 0.63445-1.181919 0.980327-1.690502-24.461111 35.547611-73.441663 46.270836-111.506607 24.355711-38.084387-21.877263-51.247174-68.387553-30.071899-105.838513-0.308015 0.556679-0.845251 0.959861-1.153266 1.547239l2.305509-3.756557c0.076748-0.058328 0.096191-0.153496 0.115634-0.211824l0.038886-0.037862 0.921999-1.441838L451.909925 268.406053l-40.275285-23.163559L219.500715 552.494273c-0.153496 0.278339-0.38374 0.538259-0.556679 0.797156-0.172939 0.297782-0.288572 0.61603-0.461511 0.893346l-2.363837 3.747347 0.211824 0.11461c-32.963763 58.222029-12.682857 131.538849 47.15395 165.953659 59.760059 34.414811 136.736221 17.111726 174.763302-38.20002l0.134053 0.058328 1.267876-2.066055c0.576121-0.845251 1.172709-1.604544 1.729387-2.450818 0.538259-0.845251 0.921999-1.75804 1.460258-2.622734l113.446795-181.402513 0.287549 0.172939 104.357789-166.865425 0.038886 0.201591c0.019443-0.085958 0.076748-0.144286 0.11461-0.201591 52.074006-83.260286 23.942295-191.278441-62.871933-241.229087-86.776366-49.979298-199.37791-22.961968-251.450892 60.288085-0.038886 0.057305-0.076748 0.153496-0.115634 0.239454l-0.153496 0.085958L126.161886 502.496555l-2.421142 3.8814 0.076748 0 0.297782 0.172939c-61.017702 105.175411-24.739451 238.490719 83.663468 300.882722 109.719914 63.179948 251.740488 29.707602 318.761927-74.449619l0.115634 0.058328 1.460258-2.363837c0.019443-0.028653 0.037862-0.058328 0.076748-0.086981 0.037862-0.028653 0.037862-0.085958 0.037862-0.085958L720.290395 423.416476z" p-id="11437" fill="#bfbfbf"></path><path d="M720.577944 541.379121c-115.329678 0-208.851679 93.626377-208.851679 209.139228 0 115.560946 93.522 209.178113 208.851679 209.178113 115.350145 0 208.832236-93.617168 208.832236-209.178113C929.41018 635.005498 835.928089 541.379121 720.577944 541.379121zM661.202649 750.498906 661.202649 631.133308l119.364575 0 0 119.364575 59.683311 0L720.884936 869.845061 601.519338 750.498906 661.202649 750.498906z" p-id="11438" fill="#bfbfbf"></path></svg>