<?xml version="1.0" standalone="no"?><!DOCTYPE svg PUBLIC "-//W3C//DTD SVG 1.1//EN" "http://www.w3.org/Graphics/SVG/1.1/DTD/svg11.dtd"><svg t="1542244836502" class="icon" style="" viewBox="0 0 1024 1024" version="1.1" xmlns="http://www.w3.org/2000/svg" p-id="5126" xmlns:xlink="http://www.w3.org/1999/xlink" width="200" height="200"><defs><style type="text/css"></style></defs><path d="M811.52 384h-51.2c0-151.04-112.64-273.92-248.32-273.92-138.24 0-248.32 122.88-248.32 273.92h-51.2C212.48 204.8 345.6 58.88 512 58.88 678.4 58.88 811.52 204.8 811.52 384M256 742.4c-107.52 0-204.8-79.36-204.8-179.2s97.28-179.2 204.8-179.2v358.4z m-51.2-58.88v-240.64c-58.88 17.92-102.4 66.56-102.4 120.32s43.52 102.4 102.4 120.32M768 742.4V384c107.52 0 204.8 79.36 204.8 179.2s-97.28 179.2-204.8 179.2z m51.2-58.88c58.88-17.92 102.4-66.56 102.4-120.32s-43.52-102.4-102.4-120.32v240.64M744.96 811.52L793.6 793.6c2.56 7.68 12.8 40.96-7.68 69.12-12.8 17.92-40.96 33.28-94.72 33.28h-102.4v-51.2h102.4c35.84 0 51.2-7.68 53.76-12.8 2.56-5.12 2.56-15.36 0-20.48" p-id="5127"></path><path d="M512 972.8c-56.32 0-102.4-46.08-102.4-102.4s46.08-102.4 102.4-102.4 102.4 46.08 102.4 102.4-46.08 102.4-102.4 102.4z m0-51.2c28.16 0 51.2-23.04 51.2-51.2s-23.04-51.2-51.2-51.2-51.2 23.04-51.2 51.2 23.04 51.2 51.2 51.2" p-id="5128"></path></svg>