<?xml version="1.0" encoding="utf-8"?>
<svg version="1.1" xmlns:xlink="http://www.w3.org/1999/xlink" width="12px" height="12px" viewBox="287 200  12 12" xmlns="http://www.w3.org/2000/svg">
  <path d="M 293 200  C 296.36 200  299 202.64  299 206  C 299 209.36  296.36 212  293 212  C 289.64 212  287 209.36  287 206  C 287 202.64  289.64 200  293 200  Z " fill-rule="nonzero" fill="#ffffff" stroke="none" />
  <path d="M 293 200.5  C 296.08 200.5  298.5 202.92  298.5 206  C 298.5 209.08  296.08 211.5  293 211.5  C 289.92 211.5  287.5 209.08  287.5 206  C 287.5 202.92  289.92 200.5  293 200.5  Z " stroke-width="1" stroke="#797979" fill="none" />
  <path d="M 293 209  C 291.32 209  290 207.68  290 206  C 290 204.32  291.32 203  293 203  C 294.68 203  296 204.32  296 206  C 296 207.68  294.68 209  293 209  " fill-rule="nonzero" fill="#797979" stroke="none" />
</svg>